<?xml version="1.0" encoding="UTF-8" standalone="no"?>
<!DOCTYPE svg PUBLIC "-//W3C//DTD SVG 1.1//EN" "http://www.w3.org/Graphics/SVG/1.1/DTD/svg11.dtd">
<svg width="100%" height="100%" viewBox="0 0 24 24" version="1.1" xmlns="http://www.w3.org/2000/svg" xmlns:xlink="http://www.w3.org/1999/xlink" xml:space="preserve" xmlns:serif="http://www.serif.com/" style="fill-rule:evenodd;clip-rule:evenodd;stroke-linejoin:round;stroke-miterlimit:1.41421;">
    <path d="M12,0C5.373,0 0,5.373 0,12C0,18.627 5.373,24 12,24C18.627,24 24,18.627 24,12C24,5.373 18.627,0 12,0ZM10,16L8,16L8,10L10,10L10,16ZM9,9.109C8.393,9.109 7.9,8.613 7.9,8C7.9,7.388 8.392,6.891 9,6.891C9.608,6.891 10.1,7.388 10.1,8C10.1,8.613 9.607,9.109 9,9.109ZM17,16L15.002,16L15.002,13.139C15.002,11.258 13,11.417 13,13.139L13,16L11,16L11,10L13,10L13,11.093C13.872,9.477 17,9.357 17,12.641L17,16Z" style="fill:rgb(52,52,52);fill-rule:nonzero;"/>
</svg>
