<?xml version="1.0" standalone="no"?><!DOCTYPE svg PUBLIC "-//W3C//DTD SVG 1.1//EN" "http://www.w3.org/Graphics/SVG/1.1/DTD/svg11.dtd"><svg width="100%" height="100%" viewBox="0 0 33 33" version="1.1" xmlns="http://www.w3.org/2000/svg" xmlns:xlink="http://www.w3.org/1999/xlink" xml:space="preserve" style="fill-rule:evenodd;clip-rule:evenodd;stroke-linejoin:round;stroke-miterlimit:1.41421;"><path id="google-plus-circle-icon" d="M17.418,21.927c0,1.581 -1.285,2.817 -3.944,2.817c-2.08,0 -3.582,-1.316 -3.582,-2.898c0,-1.55 1.763,-2.887 3.843,-2.864c2.307,0 3.683,1.436 3.683,2.945ZM32.188,16.094c0,8.889 -7.206,16.094 -16.094,16.094c-8.889,0 -16.094,-7.205 -16.094,-16.094c0,-8.888 7.205,-16.094 16.094,-16.094c8.888,0 16.094,7.206 16.094,16.094ZM19.209,21.743c0,-1.46 -0.545,-2.414 -2.195,-3.65c-1.673,-1.22 -2.082,-1.909 -0.484,-3.144c0.9,-0.696 1.53,-1.623 1.53,-2.769c0,-1.248 -0.51,-2.379 -1.47,-2.929l1.36,0l1.157,-1.215c0,0 -4.363,0 -5.18,0c-3.234,0 -4.819,1.938 -4.819,4.07c0,2.179 1.495,3.895 4.414,3.895c-0.453,0.914 -0.271,1.757 0.47,2.361c-4.985,0 -6.052,2.188 -6.052,3.872c0,2.183 2.509,3.481 5.519,3.481c4.116,0 5.75,-2.18 5.75,-3.972ZM25.965,10.664l-2.39,0l0,-2.39l-1.194,0l0,2.39l-2.39,0l0,1.195l2.391,0l0,2.39l1.194,0l0,-2.39l2.39,0l0,-1.195l-0.001,0ZM15.979,12.258c-0.241,-1.833 -1.436,-3.337 -2.831,-3.379c-1.396,-0.042 -2.332,1.361 -2.091,3.195c0.241,1.833 1.567,3.114 2.964,3.156c1.395,0.041 2.199,-1.139 1.958,-2.972Z" style="fill:#fff;fill-rule:nonzero;"/></svg>