<?xml version="1.0" encoding="UTF-8" standalone="no"?><!DOCTYPE svg PUBLIC "-//W3C//DTD SVG 1.1//EN" "http://www.w3.org/Graphics/SVG/1.1/DTD/svg11.dtd"><svg width="100%" height="100%" viewBox="0 0 24 24" version="1.1" xmlns="http://www.w3.org/2000/svg" xmlns:xlink="http://www.w3.org/1999/xlink" xml:space="preserve" xmlns:serif="http://www.serif.com/" style="fill-rule:evenodd;clip-rule:evenodd;stroke-linejoin:round;stroke-miterlimit:1.41421;"><path d="M11.455,9.985c-1.419,0.417 -3.11,0.632 -5.067,0.646c0.405,-1.654 1.518,-3.03 3.003,-3.784c0.777,1.016 1.464,2.063 2.064,3.138Zm0.965,1.93c-0.124,-0.28 -0.254,-0.559 -0.391,-0.835c-1.622,0.51 -3.561,0.769 -5.804,0.772l-0.008,0.148c0,1.404 0.504,2.692 1.34,3.695c1.266,-1.901 2.891,-3.164 4.863,-3.78Zm-3.97,4.641c1.569,1.225 3.671,1.589 5.624,0.836c-0.252,-1.488 -0.65,-2.94 -1.19,-4.352c-1.819,0.542 -3.285,1.714 -4.434,3.516Zm7.075,-9.13c-0.977,-0.754 -2.197,-1.209 -3.525,-1.209c-0.49,0 -0.964,0.068 -1.418,0.184c0.764,1.028 1.441,2.086 2.035,3.172c1.236,-0.524 2.204,-1.24 2.908,-2.147Zm8.475,4.574c0,6.627 -5.373,12 -12,12c-6.627,0 -12,-5.373 -12,-12c0,-6.627 5.373,-12 12,-12c6.627,0 12,5.373 12,12Zm-5,0c0,-3.866 -3.135,-7 -7,-7c-3.865,0 -7,3.134 -7,7c0,3.866 3.135,7 7,7c3.865,0 7,-3.134 7,-7Zm-5.824,-1.349c0.157,0.324 0.305,0.651 0.447,0.98c1.26,-0.217 2.641,-0.204 4.143,0.042c-0.073,-1.292 -0.566,-2.474 -1.354,-3.403c-0.807,1.005 -1.89,1.798 -3.236,2.381Zm0.914,2.132c0.489,1.309 0.865,2.651 1.119,4.023c1.312,-0.88 2.241,-2.284 2.497,-3.909c-1.317,-0.228 -2.522,-0.268 -3.616,-0.114Z" style="fill:#343434;fill-rule:nonzero;"/></svg>