<?xml version="1.0" encoding="UTF-8" standalone="no"?>
<!DOCTYPE svg PUBLIC "-//W3C//DTD SVG 1.1//EN" "http://www.w3.org/Graphics/SVG/1.1/DTD/svg11.dtd">
<svg width="100%" height="100%" viewBox="0 0 24 24" version="1.1" xmlns="http://www.w3.org/2000/svg" xmlns:xlink="http://www.w3.org/1999/xlink" xml:space="preserve" xmlns:serif="http://www.serif.com/" style="fill-rule:evenodd;clip-rule:evenodd;stroke-linejoin:round;stroke-miterlimit:1.41421;">
    <path d="M8.84,10.835L6.875,10.835L6.875,8.976L8.658,8.976C10.536,8.976 10.304,10.835 8.84,10.835ZM14.629,11.893L17.253,11.893C17.138,10.206 14.893,10.083 14.629,11.893ZM8.729,12.289L6.875,12.289L6.875,14.236L8.699,14.236C10.481,14.235 10.372,12.289 8.729,12.289ZM24,12C24,18.627 18.627,24 12,24C5.373,24 0,18.627 0,12C0,5.373 5.373,0 12,0C18.627,0 24,5.373 24,12ZM10.643,11.267C12.311,10.414 12.25,7.286 9.056,7.239L5,7.239L5,15.969L8.771,15.969C12.729,15.969 12.662,12.002 10.643,11.267ZM14,8.101L18,8.101L18,7.226L14,7.226L14,8.101ZM18.943,11.794C18.398,8.289 12.89,8.083 12.89,12.666C12.89,17.192 18.07,16.484 18.839,14.226L16.991,14.226C16.346,14.974 14.483,14.757 14.587,13.042L18.997,13.042C19.006,12.487 18.988,12.089 18.943,11.794Z" style="fill:rgb(52,52,52);fill-rule:nonzero;"/>
</svg>
