<?xml version="1.0" encoding="utf-8"?>
<!-- Generator: Adobe Illustrator 18.0.0, SVG Export Plug-In . SVG Version: 6.00 Build 0)  -->
<!DOCTYPE svg PUBLIC "-//W3C//DTD SVG 1.1//EN" "http://www.w3.org/Graphics/SVG/1.1/DTD/svg11.dtd">
<svg version="1.1" id="Livello_1" xmlns="http://www.w3.org/2000/svg" xmlns:xlink="http://www.w3.org/1999/xlink" x="0px" y="0px"
	 viewBox="0 0 676 480" enable-background="new 0 0 676 480" xml:space="preserve">
<g>
	<g id="Livello_3_1_" display="none">
		<rect x="5" y="-79" display="inline" fill="#FFFDF0" width="665" height="665"/>
	</g>
	<g id="Livello_4_1_" display="none">
		<path display="inline" fill="#96C222" d="M450,163.8c0,6.3-0.5,12.6-1.5,18.6c-3.3,20.6-12,39.3-24.6,54.8
			c-5,6.1-10.5,11.6-16.6,16.6C392,266.3,373.4,275,353,278.4c-6.2,1.1-12.6,1.6-19.2,1.6c-64.2,0-116.2-52-116.2-116.2
			c0-64.1,52-116.1,116.2-116.1C398,47.6,450,99.6,450,163.8z"/>
		
			<linearGradient id="SVGID_1_" gradientUnits="userSpaceOnUse" x1="49.6831" y1="540.225" x2="69.4084" y2="520.4997" gradientTransform="matrix(4.1639 0 0 -4.1639 126.718 2412.6675)">
			<stop  offset="0" style="stop-color:#F9B334"/>
			<stop  offset="1" style="stop-color:#FFFFFF"/>
		</linearGradient>
		<path display="inline" fill="url(#SVGID_1_)" d="M448.5,182.4c-3.3,20.6-12,39.3-24.6,54.8l-16.6,16.6
			C392,266.3,373.4,275,353,278.4l-67.3-67.3l95.7-95.7L448.5,182.4z"/>
	</g>
	<g id="Livello_5_1_" display="none">
		<g display="inline">
			<defs>
				<filter id="Adobe_OpacityMaskFilter" filterUnits="userSpaceOnUse" x="281" y="259.7" width="105.7" height="23.1">
					<feColorMatrix  type="matrix" values="1 0 0 0 0  0 1 0 0 0  0 0 1 0 0  0 0 0 1 0"/>
				</filter>
			</defs>
			<mask maskUnits="userSpaceOnUse" x="281" y="259.7" width="105.7" height="23.1" id="SVGID_2_">
				<g filter="url(#Adobe_OpacityMaskFilter)">
					
						<image overflow="visible" enable-background="new    " width="354" height="96" xlink:href="315E050978142665.jpg"  transform="matrix(0.3138 0 0 0.2959 278.3571 257.0466)">
					</image>
				</g>
			</mask>
			<g mask="url(#SVGID_2_)">
				<ellipse fill="#010202" cx="333.9" cy="271.2" rx="52.8" ry="11.5"/>
			</g>
		</g>
	</g>
	<g id="Livello_1_4_">
		
			<linearGradient id="SVGID_3_" gradientUnits="userSpaceOnUse" x1="37.9903" y1="539.9812" x2="61.5069" y2="539.9812" gradientTransform="matrix(4.1639 0 0 -4.1639 126.718 2412.6675)">
			<stop  offset="0" style="stop-color:#419F36"/>
			<stop  offset="1" style="stop-color:#068B3B"/>
		</linearGradient>
		<path fill="url(#SVGID_3_)" d="M381,213.8l-45.1,26.5c-1.2,0.7-2.7,0.7-3.9,0l-45.1-26.5c-1.2-0.7-1.9-1.9-1.9-3.3v-92.3
			c0-1.3,0.7-2.6,1.9-3.3l45.1-26.8c1.2-0.7,2.7-0.7,3.9,0l45.1,26.8c1.2,0.7,1.9,1.9,1.9,3.3v92.3
			C382.8,211.9,382.1,213.1,381,213.8z"/>
		<path fill="#3EAB37" d="M333.9,87.6c-0.8,0-1.6,0.2-2.4,0.6l-44.3,26.1c-0.8,0.5-1.4,1.1-1.8,1.9l48.4,48.4V87.6z"/>
		<path fill="#39A136" d="M333.9,164.7l48.4-48.4c-0.4-0.8-1-1.4-1.8-1.9l-44.3-26.1c-0.7-0.4-1.6-0.6-2.4-0.6V164.7L333.9,164.7z"
			/>
		<path fill="#31AC67" d="M333.9,163.8L333.9,163.8L333.9,163.8z"/>
		<path fill="#31AC67" d="M333.9,163.8L333.9,163.8L333.9,163.8z"/>
		<path fill="#39A136" d="M333.9,164.7l-48.4-48.4c-0.3,0.7-0.5,1.4-0.5,2.2v46.3L333.9,164.7L333.9,164.7z"/>
		<path fill="#078E38" d="M382.3,212.2c0.3-0.7,0.5-1.4,0.5-2.1v-46.3h-49L382.3,212.2z"/>
		<path fill="#389C36" d="M284.9,163.8v46.3c0,0.8,0.2,1.5,0.5,2.1l48.4-48.4H284.9z"/>
		<path fill="#389C36" d="M382.3,116.3l-48.4,48.4l0,0h49v-46.3C382.8,117.6,382.6,116.9,382.3,116.3z"/>
		<path fill="#078E38" d="M285.4,212.2c0.4,0.8,1,1.4,1.8,1.9l44.3,26.1c0.7,0.4,1.6,0.6,2.4,0.6v-77.1L285.4,212.2z"/>
		<path fill="#098637" d="M333.9,163.8v77.1c0.8,0,1.6-0.2,2.4-0.6l44.3-26.1c0.8-0.5,1.4-1.1,1.8-1.9L333.9,163.8L333.9,163.8z"/>
		
			<linearGradient id="SVGID_4_" gradientUnits="userSpaceOnUse" x1="42.8712" y1="546.8587" x2="56.626" y2="533.1038" gradientTransform="matrix(4.1639 0 0 -4.1639 126.718 2412.6675)">
			<stop  offset="0" style="stop-color:#419F36"/>
			<stop  offset="1" style="stop-color:#068B3B"/>
		</linearGradient>
		<polygon fill="url(#SVGID_4_)" points="362.7,192.7 333.9,209.6 305,192.7 305,135.8 333.9,118.7 362.7,135.8 		"/>
	</g>
	<g id="Livello_2_2_">
		<text transform="matrix(1 0 0 1 100.7607 351.0312)" fill="#212121" font-family="'Signika-Semibold'" font-size="133">emerald</text>
	</g>
</g>
</svg>
