<?xml version="1.0" encoding="utf-8"?>
<!-- Generator: Adobe Illustrator 15.1.0, SVG Export Plug-In . SVG Version: 6.00 Build 0)  -->
<!DOCTYPE svg PUBLIC "-//W3C//DTD SVG 1.1//EN" "http://www.w3.org/Graphics/SVG/1.1/DTD/svg11.dtd">
<svg version="1.1" id="Livello_1" xmlns="http://www.w3.org/2000/svg" xmlns:xlink="http://www.w3.org/1999/xlink" x="0px" y="0px"
	 width="30" height="30" viewBox="3.906 3.906 32.188 32.188" enable-background="new 3.906 3.906 32.188 32.188"
	 xml:space="preserve">
<path id="twitter-4-icon" fill="#FFFFFF" d="M20,3.906C11.112,3.906,3.906,11.112,3.906,20c0,8.889,7.206,16.094,16.094,16.094
	c8.889,0,16.094-7.205,16.094-16.094C36.094,11.112,28.889,3.906,20,3.906z M28.094,17.227c0.236,5.25-3.68,11.103-10.609,11.103
	c-2.108,0-4.07-0.617-5.722-1.677c1.98,0.233,3.957-0.315,5.526-1.546c-1.633-0.029-3.012-1.109-3.487-2.592
	c0.585,0.111,1.16,0.079,1.686-0.064c-1.795-0.36-3.034-1.978-2.994-3.707c0.503,0.28,1.079,0.448,1.691,0.467
	c-1.662-1.111-2.133-3.306-1.155-4.984c1.841,2.259,4.591,3.745,7.693,3.9c-0.544-2.335,1.227-4.583,3.637-4.583
	c1.072,0,2.043,0.453,2.725,1.179c0.85-0.167,1.648-0.478,2.369-0.906c-0.278,0.872-0.87,1.604-1.641,2.065
	c0.755-0.09,1.475-0.291,2.144-0.587C29.456,16.043,28.823,16.701,28.094,17.227z"/>
</svg>
